<?xml version="1.0" encoding="UTF-8" standalone="no"?>
<svg
   width="16"
   height="16"
   fill="currentColor"
   class="bi bi-gem"
   viewBox="0 0 16 16"
   version="1.1"
   id="svg1"
   sodipodi:docname="logo.svg"
   inkscape:version="1.4 (e7c3feb1, 2024-10-09)"
   inkscape:export-filename="../../app/logo.png"
   inkscape:export-xdpi="96"
   inkscape:export-ydpi="96"
   xmlns:inkscape="http://www.inkscape.org/namespaces/inkscape"
   xmlns:sodipodi="http://sodipodi.sourceforge.net/DTD/sodipodi-0.dtd"
   xmlns="http://www.w3.org/2000/svg"
   xmlns:svg="http://www.w3.org/2000/svg">
  <defs
     id="defs1" />
  <sodipodi:namedview
     id="namedview1"
     pagecolor="#505050"
     bordercolor="#eeeeee"
     borderopacity="1"
     inkscape:showpageshadow="0"
     inkscape:pageopacity="0"
     inkscape:pagecheckerboard="0"
     inkscape:deskcolor="#505050"
     showgrid="false"
     inkscape:zoom="64.6875"
     inkscape:cx="8"
     inkscape:cy="8"
     inkscape:window-width="2048"
     inkscape:window-height="1254"
     inkscape:window-x="0"
     inkscape:window-y="50"
     inkscape:window-maximized="1"
     inkscape:current-layer="svg1" />
  <path
     d="M3.1.7a.5.5 0 0 1 .4-.2h9a.5.5 0 0 1 .4.2l2.976 3.974c.149.185.156.45.01.644L8.4 15.3a.5.5 0 0 1-.8 0L.1 5.3a.5.5 0 0 1 0-.6zm11.386 3.785-1.806-2.41-.776 2.413zm-3.633.004.961-2.989H4.186l.963 2.995zM5.47 5.495 8 13.366l2.532-7.876zm-1.371-.999-.78-2.422-1.818 2.425zM1.499 5.5l5.113 6.817-2.192-6.82zm7.889 6.817 5.123-6.83-2.928.002z"
     id="path1" />
  <path
     style="fill:#143ed7;stroke-width:0.0154589;fill-opacity:1"
     d="M 7.8805207,15.474573 C 7.7879597,15.448735 7.7011727,15.397159 7.6425512,15.333153 7.5420372,15.223407 0.07725544,5.2503788 0.04861511,5.1875738 0.00455262,5.0909496 0.00334852,4.9115825 0.04611451,4.8150734 0.08859408,4.7192108 3.1095946,0.69271137 3.1918896,0.62226987 3.2285015,0.59093149 3.2939996,0.55288313 3.3374409,0.53771796 3.4125449,0.51149946 3.6415949,0.51014493 8,0.51014493 c 4.410433,0 4.586657,0.001074 4.665161,0.0284374 0.05001,0.0174299 0.11123,0.0563247 0.158169,0.10048309 0.04212,0.0396251 0.75837,0.98305698 1.591668,2.09651538 1.122401,1.4997605 1.521554,2.0439409 1.54004,2.0995954 0.03039,0.091484 0.024,0.2857926 -0.0121,0.36816 -0.03679,0.083945 -7.573903,10.1262968 -7.64264,10.1829558 -0.1085883,0.08951 -0.2835612,0.126305 -0.4197773,0.08828 z M 9.2724919,9.4338164 C 9.9672335,7.2720773 10.53557,5.4981643 10.535462,5.4917874 10.535354,5.4854106 9.3943961,5.4801932 8,5.4801932 c -1.3943961,0 -2.5353637,0.00522 -2.5354835,0.011594 -4.69e-4,0.024975 2.5272278,7.8724638 2.5357412,7.8724638 0.00499,0 0.5774926,-1.768695 1.2722342,-3.9304346 z M 5.5257232,8.9110779 C 4.9242521,7.0399968 4.4290756,5.5060482 4.4253307,5.5023034 c -0.00374,-0.00374 -0.665756,-0.00503 -1.4711358,-0.00287 l -1.4643269,0.00394 2.5536044,3.404831 c 1.4044823,1.8726576 2.5586061,3.4048306 2.5647193,3.4048306 0.00611,0 -0.4809976,-1.530884 -1.0824685,-3.4019653 z m 6.4230858,0.00744 c 1.400248,-1.8669897 2.549687,-3.404381 2.554308,-3.4164251 0.0072,-0.018797 -0.199386,-0.021898 -1.458803,-0.021898 H 11.577107 L 10.478912,8.8966184 C 9.8749055,10.775652 9.3857098,12.313043 9.3918108,12.313043 c 0.0061,0 1.1567502,-1.527537 2.5569982,-3.3945263 z M 4.1043478,4.4965406 c 0,-0.01236 -0.7751904,-2.4232002 -0.7814591,-2.4303357 -0.00404,-0.0046 -1.7900681,2.369399 -1.8212081,2.4207516 -0.00934,0.015399 0.2537771,0.019324 1.2954746,0.019324 0.7189559,0 1.3071926,-0.00438 1.3071926,-0.00974 z m 5.5013313,-0.00407 1.2578529,-0.00938 0.477205,-1.484058 C 11.603199,2.1828019 11.818035,1.5097585 11.818149,1.5033816 11.818264,1.4970048 10.100097,1.4917874 8,1.4917874 c -2.1000966,0 -3.8183575,0.00463 -3.8183575,0.010295 0,0.00566 0.2060159,0.6508793 0.4578129,1.4338164 0.251797,0.7829372 0.4677186,1.4565655 0.4798259,1.4969519 l 0.022013,0.07343 1.6032658,-0.00221 c 0.8817962,-0.00122 2.1692998,-0.00643 2.8611189,-0.011594 z m 4.8773039,-0.020415 c -0.03572,-0.057794 -1.801659,-2.4106396 -1.805884,-2.4060643 -0.0028,0.00303 -0.177199,0.5411544 -0.387566,1.1958403 -0.210367,0.654686 -0.385794,1.1990339 -0.389837,1.2096619 -0.0058,0.015364 0.259257,0.019324 1.293765,0.019324 1.016165,0 1.298578,-0.00411 1.289522,-0.018762 z"
     id="path2" />
</svg>
